<?xml version="1.0" encoding="UTF-8" standalone="no"?>
<!DOCTYPE svg PUBLIC "-//W3C//DTD SVG 1.1//EN" "http://www.w3.org/Graphics/SVG/1.1/DTD/svg11.dtd">
<svg width="100%" height="100%" viewBox="0 0 256 256" version="1.1" xmlns="http://www.w3.org/2000/svg" xmlns:xlink="http://www.w3.org/1999/xlink" xml:space="preserve" xmlns:serif="http://www.serif.com/" style="fill-rule:evenodd;clip-rule:evenodd;stroke-linejoin:round;stroke-miterlimit:2;">
    <path d="M256,128C256,57.355 198.645,0 128,0C57.355,0 0,57.355 0,128C0,198.645 57.355,256 128,256C198.645,256 256,198.645 256,128ZM23.482,137.859C24.829,126.61 27.86,116.507 32.575,107.549C37.29,98.591 43.116,91.906 50.054,87.494C56.991,83.082 64.703,80.978 73.19,81.18C84.304,81.449 92.992,85.591 99.256,93.607L109.764,37.433L133.809,37.433L106.834,192.618L85.415,192.618L87.032,181.302C78.545,190.53 68.576,195.009 57.126,194.74C46.955,194.605 38.822,190.681 32.727,182.969C26.631,175.257 23.348,165.003 22.876,152.205C22.674,148.029 22.775,143.954 23.179,139.98L23.482,137.859ZM197.864,162.308C199.009,155.64 194.681,151.01 184.881,148.416C175.081,145.823 168.396,143.752 164.826,142.203C150.951,136.276 144.249,127.25 144.721,115.126C145.058,105.293 149.52,97.16 158.108,90.727C166.695,84.295 176.984,81.146 188.973,81.281C200.558,81.415 210.004,84.682 217.312,91.081C224.62,97.479 228.207,105.865 228.072,116.238L204.33,116.137C204.464,111.085 203.084,107.128 200.187,104.265C197.291,101.403 193.317,99.904 188.266,99.77C182.945,99.77 178.381,101.083 174.576,103.71C170.77,106.337 168.564,109.772 167.958,114.015C167.015,120.144 171.326,124.405 180.89,126.796C190.455,129.187 197.527,131.393 202.107,133.413C215.443,139.273 221.876,148.433 221.404,160.894C221.067,167.831 218.794,173.877 214.584,179.029C210.375,184.182 204.734,188.122 197.662,190.85C190.589,193.578 183.079,194.841 175.131,194.639C163.21,194.504 153.325,191.035 145.479,184.232C137.632,177.429 133.776,168.707 133.91,158.065L157.047,158.166C157.181,164.026 158.933,168.471 162.3,171.502C165.668,174.533 170.282,176.082 176.142,176.15C182.069,176.15 187.003,174.921 190.943,172.462C194.883,170.004 197.19,166.619 197.864,162.308ZM46.72,147.255C46.248,155.607 47.545,162.241 50.609,167.158C53.674,172.075 58.237,174.601 64.299,174.735C73.527,175.005 81.508,170.526 88.244,161.298L96.428,114.318C93.262,105.899 87.133,101.554 78.04,101.285C68.879,101.016 61.504,105.057 55.914,113.409C50.323,121.761 47.259,133.043 46.72,147.255Z" style="fill:rgb(220,53,34);"/>
</svg>
