<?xml version="1.0" standalone="no"?>
<!DOCTYPE svg PUBLIC "-//W3C//DTD SVG 20010904//EN"
 "http://www.w3.org/TR/2001/REC-SVG-20010904/DTD/svg10.dtd">
<svg version="1.0" xmlns="http://www.w3.org/2000/svg"
 width="700.000000pt" height="700.000000pt" viewBox="0 0 700.000000 700.000000"
 preserveAspectRatio="xMidYMid meet">
<metadata>
Created by potrace 1.14, written by Peter Selinger 2001-2017
</metadata>
<g transform="translate(0.000000,700.000000) scale(0.100000,-0.100000)"
fill="#000000" stroke="none">
<path d="M3278 6996 c-1 -2 -39 -6 -83 -10 -614 -47 -1273 -297 -1770 -669
-96 -72 -153 -117 -175 -137 -9 -8 -48 -43 -88 -78 -442 -391 -797 -933 -986
-1507 -47 -142 -60 -190 -100 -375 -28 -130 -39 -197 -51 -300 -27 -235 -27
-644 0 -834 3 -17 7 -49 9 -71 10 -83 18 -131 26 -165 5 -19 12 -48 14 -65 27
-149 109 -419 184 -605 198 -490 545 -974 952 -1325 30 -26 66 -57 80 -69 155
-134 455 -323 700 -443 301 -146 686 -263 1019 -309 25 -3 57 -8 71 -10 163
-25 682 -25 842 1 13 2 46 7 73 10 72 10 86 12 120 19 17 3 44 8 60 11 340 64
743 214 1041 385 48 28 89 50 91 50 2 0 9 5 16 10 7 6 62 43 124 84 309 206
607 485 829 776 27 36 51 67 54 70 10 9 155 232 192 295 168 285 332 699 394
1000 16 79 54 301 59 350 4 33 9 71 11 85 9 46 11 524 4 605 -15 153 -21 210
-25 225 -2 8 -7 35 -10 60 -8 59 -40 212 -70 330 -91 360 -274 760 -493 1080
-56 82 -184 251 -217 286 -5 7 -35 40 -65 74 -105 120 -292 296 -449 423 -281
227 -686 446 -1052 567 -177 58 -416 117 -549 135 -19 3 -46 7 -60 10 -13 2
-52 7 -86 11 -33 3 -74 8 -90 10 -32 5 -540 14 -546 10z m376 -1031 c-1 -5 -4
-30 -8 -55 -3 -25 -8 -58 -11 -75 -9 -48 -34 -187 -39 -220 -3 -16 -12 -68
-20 -115 -8 -47 -17 -101 -21 -120 -3 -19 -14 -84 -25 -145 -10 -60 -21 -123
-24 -140 -5 -28 -60 -347 -71 -407 -11 -60 -18 -104 -30 -173 -3 -16 -15 -82
-26 -145 -12 -63 -22 -126 -24 -140 -2 -14 -19 -115 -39 -225 -19 -110 -38
-216 -41 -235 -13 -80 -46 -269 -55 -315 -5 -27 -12 -66 -14 -85 -3 -19 -8
-46 -10 -60 -3 -14 -14 -79 -26 -145 -11 -66 -22 -127 -25 -135 -2 -8 -7 -35
-10 -60 -4 -25 -15 -97 -26 -160 -11 -63 -22 -128 -25 -145 -3 -16 -7 -37 -9
-45 -2 -8 -7 -31 -9 -50 -8 -55 -56 -333 -61 -350 -3 -8 -7 -33 -10 -55 -2
-22 -7 -51 -10 -65 -8 -39 -11 -56 -35 -205 -13 -77 -27 -144 -32 -150 -6 -6
-118 -10 -294 -11 l-285 -1 6 66 c4 36 8 68 10 71 1 3 6 32 9 65 4 33 10 71
13 84 5 19 -8 11 -61 -39 -252 -240 -543 -338 -881 -295 -88 11 -230 60 -309
107 -242 144 -425 454 -481 818 -24 160 -25 519 -1 635 2 11 7 47 11 80 3 32
8 62 10 65 2 3 6 23 9 45 4 22 20 90 36 152 132 497 400 886 730 1061 81 44
223 96 286 107 21 3 62 10 89 15 76 14 319 5 398 -14 172 -42 309 -117 424
-233 40 -40 75 -68 78 -64 3 5 19 85 36 178 16 92 43 236 59 318 16 83 32 166
35 185 19 103 37 201 65 345 17 88 33 176 36 195 12 75 54 281 58 289 7 11
651 8 650 -4z m1706 -1200 c14 -3 48 -9 75 -15 86 -16 94 -18 158 -41 277 -97
488 -289 582 -529 31 -79 54 -191 59 -287 l4 -71 -324 1 c-211 1 -324 5 -325
12 -8 113 -16 150 -46 213 -30 64 -103 139 -164 169 -141 70 -349 69 -514 -2
-60 -26 -149 -91 -184 -136 -78 -96 -110 -234 -76 -323 37 -96 163 -178 350
-225 398 -101 603 -178 760 -283 234 -158 342 -360 337 -632 -7 -446 -363
-804 -901 -906 -318 -60 -626 -36 -871 68 -293 124 -495 336 -578 603 -24 77
-30 112 -37 217 l-6 79 313 -2 c172 -2 316 -3 319 -4 3 0 6 -20 7 -44 2 -55
26 -144 53 -202 29 -61 113 -144 180 -177 143 -71 356 -83 539 -30 214 63 347
219 342 404 -2 69 -18 112 -63 163 -72 82 -151 118 -417 191 -230 63 -388 117
-490 167 -233 114 -385 267 -446 447 -32 96 -37 124 -37 224 -3 242 79 436
259 612 191 188 441 303 737 339 95 11 351 12 405 0z"/>
<path d="M1962 4215 c-290 -64 -517 -342 -621 -760 -11 -44 -22 -98 -25 -120
-4 -22 -9 -53 -11 -70 -3 -16 -7 -43 -10 -60 -7 -43 -18 -219 -19 -305 -5
-325 117 -574 317 -646 63 -23 75 -25 163 -29 204 -9 383 69 550 240 44 45 87
97 96 116 9 19 26 93 38 164 12 72 24 139 26 150 3 11 7 38 10 60 3 22 9 56
14 75 5 19 12 55 15 80 6 41 39 239 66 385 6 33 23 132 39 220 l27 160 -22 50
c-47 105 -144 207 -240 251 -110 51 -286 67 -413 39z"/>
</g>
</svg>
